# xmcd
#
# Track frame offsets:
#	150
#	25875
#	51750
#	76800
#	101550
#	133575
#	156600
#	181875
#
# Disc length: 2709 seconds
#
# Revision: 1
# Processed by: cddbd v1.5.1PL0 Copyright (c) Steve Scherf et al.
# Submitted via: CDex 1.50Beta5
#
DISCID=610a9308
DTITLE=尾崎豊 - 誕生(BIRTH) [CD1]
DYEAR=1900
DGENRE=Pop
TTITLE0=LOVE WAY
TTITLE1=KISS
TTITLE2=黄昏ゆく街で
TTITLE3=ロザーナ
TTITLE4=RED SHOES STORY
TTITLE5=銃声の証明
TTITLE6=LONELY ROSE
TTITLE7=置き去りの愛
EXTD=
EXTT0=
EXTT1=
EXTT2=
EXTT3=
EXTT4=
EXTT5=
EXTT6=
EXTT7=
PLAYORDER=
